<?xml version="1.0" standalone="no"?><!DOCTYPE svg PUBLIC "-//W3C//DTD SVG 1.1//EN" "http://www.w3.org/Graphics/SVG/1.1/DTD/svg11.dtd"><svg t="1651733153709" class="icon" viewBox="0 0 1024 1024" version="1.1" xmlns="http://www.w3.org/2000/svg" p-id="2304" width="32" height="32" xmlns:xlink="http://www.w3.org/1999/xlink"><defs><style type="text/css"></style></defs><path d="M425.9 144.9c38.1 0 75 7.4 109.6 22.1 33.5 14.2 63.7 34.5 89.6 60.4 25.9 25.9 46.2 56 60.4 89.6 14.7 34.7 22.1 71.6 22.1 109.6s-7.4 75-22.1 109.6c-14.2 33.5-34.5 63.7-60.4 89.6-25.9 25.9-56 46.2-89.6 60.4-34.7 14.7-71.6 22.1-109.6 22.1s-75-7.4-109.6-22.1c-33.5-14.2-63.7-34.5-89.6-60.4-25.9-25.9-46.2-56-60.4-89.6-14.7-34.7-22.1-71.6-22.1-109.6s7.4-75 22.1-109.6c14.2-33.5 34.5-63.7 60.4-89.6 25.9-25.9 56-46.2 89.6-60.4 34.7-14.6 71.6-22.1 109.6-22.1m0-80c-199.8 0-361.7 161.9-361.7 361.7s161.9 361.7 361.7 361.7 361.7-161.9 361.7-361.7S625.7 64.9 425.9 64.9z" fill="#2C2C2C" p-id="2305"></path><path d="M715.3 654l226.3 226.3c15.6 15.6 15.6 40.9 0 56.6-15.6 15.6-40.9 15.6-56.6 0L658.7 710.6c-15.6-15.6-15.6-40.9 0-56.6 15.6-15.6 41-15.6 56.6 0z" fill="#5ABE64" p-id="2306"></path></svg>