<?xml version="1.0" standalone="no"?><!DOCTYPE svg PUBLIC "-//W3C//DTD SVG 1.1//EN" "http://www.w3.org/Graphics/SVG/1.1/DTD/svg11.dtd"><svg t="1651588598726" class="icon" viewBox="0 0 1024 1024" version="1.1" xmlns="http://www.w3.org/2000/svg" p-id="3087" xmlns:xlink="http://www.w3.org/1999/xlink" width="16" height="16"><defs><style type="text/css"></style></defs><path d="M0 0h1024v1024H0V0z" fill="#202425" opacity=".01" p-id="3088"></path><path d="M102.4 68.266667a34.133333 34.133333 0 0 1 34.133333-34.133334h750.933334a34.133333 34.133333 0 0 1 34.133333 34.133334v634.402133a34.133333 34.133333 0 0 1-10.001067 24.132267l-253.064533 253.064533a34.133333 34.133333 0 0 1-24.132267 10.001067H136.533333a34.133333 34.133333 0 0 1-34.133333-34.133334V68.266667z" fill="#11AA66" p-id="3089"></path><path d="M238.933333 238.933333a34.133333 34.133333 0 0 1 34.133334-34.133333h477.866666a34.133333 34.133333 0 1 1 0 68.266667H273.066667a34.133333 34.133333 0 0 1-34.133334-34.133334z m0 204.8a34.133333 34.133333 0 0 1 34.133334-34.133333h477.866666a34.133333 34.133333 0 1 1 0 68.266667H273.066667a34.133333 34.133333 0 0 1-34.133334-34.133334z m34.133334 170.666667a34.133333 34.133333 0 1 0 0 68.266667h204.8a34.133333 34.133333 0 1 0 0-68.266667H273.066667z" fill="#FFFFFF" p-id="3090"></path><path d="M648.533333 750.933333a34.133333 34.133333 0 0 1 34.133334-34.133333h230.7072a3.413333 3.413333 0 0 1 2.389333 5.802667l-261.393067 261.461333a3.413333 3.413333 0 0 1-5.8368-2.423467V750.933333z" fill="#FFAA44" p-id="3091"></path></svg>